<svg xmlns="http://www.w3.org/2000/svg" x="0px" y="0px" width="100" height="100" viewBox="0,0,256,256">
<g fill="#58635e" fill-rule="nonzero" stroke="none" stroke-width="1" stroke-linecap="butt" stroke-linejoin="miter" stroke-miterlimit="10" stroke-dasharray="" stroke-dashoffset="0" font-family="none" font-weight="none" font-size="none" text-anchor="none" style="mix-blend-mode: normal"><g transform="scale(5.33333,5.33333)"><path d="M23.95117,4c-0.32052,0.01051 -0.62923,0.12345 -0.88086,0.32227l-14.19727,11.19922c-1.77952,1.39819 -2.87305,3.57891 -2.87305,5.87891v19.09961c0,0.63333 0.2368,1.30711 0.71484,1.78516c0.47805,0.47805 1.15182,0.71484 1.78516,0.71484h10c0.63333,0 1.30711,-0.2368 1.78516,-0.71484c0.47805,-0.47805 0.71484,-1.15182 0.71484,-1.78516v-10c0,-0.28182 0.21818,-0.5 0.5,-0.5h5c0.28182,0 0.5,0.21818 0.5,0.5v10c0,0.63333 0.2368,1.30711 0.71484,1.78516c0.47805,0.47805 1.15182,0.71484 1.78516,0.71484h10c0.63333,0 1.30711,-0.2368 1.78516,-0.71484c0.47805,-0.47805 0.71484,-1.15182 0.71484,-1.78516v-19.09961c0,-2.24444 -0.98793,-4.49909 -2.91211,-5.91016l-14.1582,-11.16797c-0.2779,-0.21956 -0.62453,-0.33372 -0.97852,-0.32227zM24,7.41016l13.27148,10.4668c0.01348,0.01131 0.02715,0.02238 0.04102,0.0332c1.07582,0.78894 1.6875,2.13468 1.6875,3.49023v18.59961h-9v-9.5c0,-1.91818 -1.58182,-3.5 -3.5,-3.5h-5c-1.91818,0 -3.5,1.58182 -3.5,3.5v9.5h-9v-18.59961c0,-1.3 0.70608,-2.71968 1.72656,-3.52148c0.00065,-0.00065 0.0013,-0.0013 0.00195,-0.00195z"></path></g></g>
</svg>